# xmcd
#
# Track frame offsets: 
#        150
#        23307
#        43189
#        58194
#        76826
#        97090
#        114574
#        142422
#        161925
#        183529
#        207699
#
# Disc length: 3161 seconds
#
# Revision: 3
# Processed by: cddbd v1.5PL3 Copyright (c) Steve Scherf et al.
# Submitted via: ExactAudioCopy v0.90b4
#
DISCID=a40c570b
DTITLE=Tift Merritt - Bramble Rose
DYEAR=2002
DGENRE=Alt. Country
TTITLE0=Trouble Over Me
TTITLE1=Virginia, No One Can Warn You
TTITLE2=Neighborhood
TTITLE3=Bird Of Freedom
TTITLE4=Bramble Rose
TTITLE5=I Know Him Too
TTITLE6=Sunday
TTITLE7=Supposed To Make You Happy
TTITLE8=Diamond Shoes
TTITLE9=Are You Still In Love With Me?
TTITLE10=When I Cross Over
EXTD=YEAR: 2002 ID3G: 2
EXTT0=
EXTT1=
EXTT2=
EXTT3=
EXTT4=
EXTT5=
EXTT6=
EXTT7=
EXTT8=
EXTT9=
EXTT10=
PLAYORDER=
